<?xml version="1.0" encoding="UTF-8" standalone="no"?>
<!-- Created with Inkscape (http://www.inkscape.org/) -->

<svg
   xmlns:dc="http://purl.org/dc/elements/1.1/"
   xmlns:cc="http://creativecommons.org/ns#"
   xmlns:rdf="http://www.w3.org/1999/02/22-rdf-syntax-ns#"
   xmlns:svg="http://www.w3.org/2000/svg"
   xmlns="http://www.w3.org/2000/svg"
   xmlns:sodipodi="http://sodipodi.sourceforge.net/DTD/sodipodi-0.dtd"
   xmlns:inkscape="http://www.inkscape.org/namespaces/inkscape"
   width="11.865117mm"
   height="10.820693mm"
   viewBox="0 0 11.865117 10.820693"
   version="1.1"
   id="svg822"
   inkscape:version="0.92.3 (2405546, 2018-03-11)"
   sodipodi:docname="blue.svg">
  <defs
     id="defs816" />
  <sodipodi:namedview
     id="base"
     pagecolor="#ffffff"
     bordercolor="#666666"
     borderopacity="1.0"
     inkscape:pageopacity="0.0"
     inkscape:pageshadow="2"
     inkscape:zoom="11.2"
     inkscape:cx="12.77226"
     inkscape:cy="12.239701"
     inkscape:document-units="mm"
     inkscape:current-layer="layer1"
     showgrid="false"
     inkscape:window-width="2160"
     inkscape:window-height="1346"
     inkscape:window-x="-11"
     inkscape:window-y="-11"
     inkscape:window-maximized="1" />
  <metadata
     id="metadata819">
    <rdf:RDF>
      <cc:Work
         rdf:about="">
        <dc:format>image/svg+xml</dc:format>
        <dc:type
           rdf:resource="http://purl.org/dc/dcmitype/StillImage" />
        <dc:title />
      </cc:Work>
    </rdf:RDF>
  </metadata>
  <g
     inkscape:label="Livello 1"
     inkscape:groupmode="layer"
     id="layer1"
     transform="translate(-99.694342,-104.56559)">
    <path
       d="m 110.00022,106.11848 c 0.0592,-0.0519 0.12349,-0.0967 0.18024,-0.15026 0.0549,-0.0524 0.50069,-0.41902 0.71707,-0.6859 0.13782,-0.16892 10e-4,-0.28746 -0.12028,-0.27624 -9.01455,0.82058 -10.779182,-0.3523 -10.779182,-0.3523 -0.846148,2.56152 1.064392,4.01249 1.064392,4.01249 0.004,0.002 0.0273,0.006 0.0392,0.008 -0.57053,2.80096 -0.21823,5.54579 -0.13895,5.62871 0,0 1.64989,1.74031 4.1054,0.61981 0,0 -0.90164,-1.07873 -1.32628,-6.37384 1.22839,-0.15969 2.70681,-0.48201 4.0736,-1.07999 -0.98519,3.16074 -0.53936,6.73924 -0.44832,6.83402 0,0 1.65052,1.74031 4.10416,0.61981 0,0 -1.1654,-1.39924 -1.47094,-8.8038 z"
       style="fill:#0000ff;fill-opacity:1;stroke:#000000;stroke-width:0.17638889;stroke-linecap:butt;stroke-linejoin:round;stroke-miterlimit:10;stroke-dasharray:none;stroke-opacity:1"
       id="path1790"
       inkscape:connector-curvature="0" />
  </g>
</svg>
