<?xml version="1.0" encoding="UTF-8" standalone="no"?>
<!-- Created with Inkscape (http://www.inkscape.org/) -->

<svg
   xmlns:dc="http://purl.org/dc/elements/1.1/"
   xmlns:cc="http://creativecommons.org/ns#"
   xmlns:rdf="http://www.w3.org/1999/02/22-rdf-syntax-ns#"
   xmlns:svg="http://www.w3.org/2000/svg"
   xmlns="http://www.w3.org/2000/svg"
   xmlns:sodipodi="http://sodipodi.sourceforge.net/DTD/sodipodi-0.dtd"
   xmlns:inkscape="http://www.inkscape.org/namespaces/inkscape"
   width="12.214782mm"
   height="11.999771mm"
   viewBox="0 0 12.214782 11.999771"
   version="1.1"
   id="svg1942"
   inkscape:version="0.92.3 (2405546, 2018-03-11)"
   sodipodi:docname="rainbow.svg">
  <defs
     id="defs1936" />
  <sodipodi:namedview
     id="base"
     pagecolor="#ffffff"
     bordercolor="#666666"
     borderopacity="1.0"
     inkscape:pageopacity="0.0"
     inkscape:pageshadow="2"
     inkscape:zoom="15.839192"
     inkscape:cx="25.420623"
     inkscape:cy="29.923005"
     inkscape:document-units="mm"
     inkscape:current-layer="layer1"
     showgrid="false"
     inkscape:snap-page="true"
     inkscape:window-width="2160"
     inkscape:window-height="1346"
     inkscape:window-x="-11"
     inkscape:window-y="-11"
     inkscape:window-maximized="1" />
  <metadata
     id="metadata1939">
    <rdf:RDF>
      <cc:Work
         rdf:about="">
        <dc:format>image/svg+xml</dc:format>
        <dc:type
           rdf:resource="http://purl.org/dc/dcmitype/StillImage" />
        <dc:title />
      </cc:Work>
    </rdf:RDF>
  </metadata>
  <g
     inkscape:label="Livello 1"
     inkscape:groupmode="layer"
     id="layer1"
     transform="translate(-122.26726,-141.5085)">
    <path
       d="m 134.38444,147.51525 c -0.0327,-0.0444 -0.0977,-0.0988 -0.21613,-0.0988 -0.19639,0 -0.43726,0.15311 -0.44282,0.15685 -0.51197,0.28346 -1.43154,0.45206 -2.45795,0.45206 -1.019,0 -1.89905,-0.17292 -2.1893,-0.43046 -0.0544,-0.0481 -0.10569,-0.0897 -0.15499,-0.12417 0.009,0 0.0187,0.002 0.0284,0.002 1.56926,0 3.48622,-0.99924 4.45706,-2.32396 0.0637,-0.0865 0.0841,-0.20008 0.061,-0.33782 -0.14079,-0.83558 -1.95277,-2.56294 -2.67966,-3.06811 -0.3267,-0.22728 -0.5478,-0.25383 -0.66326,-0.10569 -0.13278,0.17422 -0.0451,0.5305 -0.0353,0.56569 0.25075,1.29938 -0.71206,4.01426 -1.41364,4.42681 -0.0691,0.0407 -0.1279,0.0808 -0.17963,0.121 0.50395,-1.48095 0.18281,-3.61406 -0.8115,-4.99374 -0.0827,-0.11427 -0.23097,-0.17161 -0.44095,-0.17161 -0.92575,0 -2.96004,1.11844 -3.60602,1.61064 -0.27299,0.2069 -0.38291,0.38105 -0.33659,0.53298 0.0722,0.23963 0.51259,0.27235 0.5583,0.27422 1.31235,0.16245 3.59801,1.91633 3.774,2.71053 0.0168,0.0741 0.037,0.13464 0.0581,0.19454 -0.83496,-0.61511 -2.09666,-0.99739 -3.35715,-0.99739 -0.58979,0 -1.14189,0.0808 -1.64152,0.24209 -0.10253,0.0334 -0.18599,0.11296 -0.24764,0.23776 -0.37674,0.75654 0.0752,3.21882 0.36744,4.05563 0.11429,0.32547 0.24704,0.48481 0.40822,0.48481 0.24767,0 0.41194,-0.40452 0.42799,-0.44589 0.54347,-1.1629 2.81863,-2.7575 3.68755,-2.7575 0.0192,0 0.0377,0.001 0.0556,0.002 0.068,0.005 0.12903,0.009 0.18412,0.009 0.0149,0 0.0227,-0.005 0.037,-0.005 -1.28334,0.89859 -2.2832,2.8137 -2.29246,4.51697 -5.8e-4,0.10494 0.0476,0.20751 0.14453,0.30323 0.59288,0.59598 3.03602,0.91774 3.90309,0.91774 l 0.071,-6.4e-4 c 0.34274,-0.007 0.5342,-0.0827 0.58607,-0.23344 0.0822,-0.23653 -0.25443,-0.52124 -0.28902,-0.55025 -0.96528,-0.90353 -1.78049,-3.66656 -1.45501,-4.41321 0.0327,-0.0736 0.0575,-0.14024 0.076,-0.20441 0.46009,1.49575 1.97193,3.03538 3.58813,3.56835 0.0339,0.0112 0.071,0.0168 0.10868,0.0168 0.78989,0 2.06271,-2.70006 2.32333,-3.55848 0.0852,-0.28162 0.0871,-0.47184 0.005,-0.58176 z"
       style="fill:none;fill-opacity:1;stroke:#000000;stroke-width:0.07321616;stroke-linecap:butt;stroke-linejoin:round;stroke-miterlimit:9.5;stroke-dasharray:none;stroke-opacity:1"
       id="path1176"
       inkscape:connector-curvature="0" />
    <path
       style="fill:none;fill-opacity:1;stroke:none;stroke-width:0.18304038;stroke-linecap:butt;stroke-linejoin:miter;stroke-miterlimit:9.5;stroke-dasharray:none;stroke-opacity:1"
       d="m 128.92334,147.47073 -0.42502,-0.72019 -0.80476,0.15761 -0.0785,0.82509 0.74423,0.33597 z"
       id="path2505"
       inkscape:connector-curvature="0" />
    <path
       style="opacity:1;vector-effect:none;fill:#ffffff;fill-opacity:1;stroke:#000000;stroke-width:0.18304038;stroke-linecap:butt;stroke-linejoin:round;stroke-miterlimit:9.5;stroke-dasharray:none;stroke-dashoffset:0;stroke-opacity:1"
       d="m 127.93695,147.98814 c 0.12828,0.0598 0.23517,0.11036 0.2373,0.11242 0.002,0.002 -0.0131,0.0476 -0.0355,0.10117 -0.0602,0.14883 -0.0844,0.30806 -0.0844,0.55413 0,0.76719 0.3216,1.94154 0.79503,2.90295 0.25791,0.52381 0.47225,0.83804 0.78781,1.15505 0.16415,0.16489 0.24192,0.27588 0.24192,0.34539 0,0.0406 -0.04,0.0752 -0.12548,0.10923 -0.0601,0.0239 -0.12194,0.0274 -0.4593,0.0269 -0.3871,-4.9e-4 -0.51124,-0.009 -1.00597,-0.0704 -1.50523,-0.18598 -2.63953,-0.55333 -2.78768,-0.90299 -0.0265,-0.0626 -0.0189,-0.28035 0.0215,-0.60871 0.14939,-1.21651 0.77615,-2.51171 1.63257,-3.37326 0.16658,-0.1675 0.51531,-0.46593 0.53998,-0.46198 0.005,0.001 0.11391,0.0502 0.24223,0.10999 z"
       id="path2507"
       inkscape:connector-curvature="0" />
    <path
       style="opacity:1;vector-effect:none;fill:none;fill-opacity:1;stroke:#000000;stroke-width:0.18304038;stroke-linecap:butt;stroke-linejoin:round;stroke-miterlimit:9.5;stroke-dasharray:none;stroke-dashoffset:0;stroke-opacity:1"
       d="m 127.74252,147.91242 c 0.0215,0.009 0.124,0.0577 0.22773,0.10625 l 0.18873,0.0883 -0.0448,0.13407 c -0.18375,0.54946 4.6e-4,1.65669 0.47786,2.87188 0.1141,0.29033 0.42879,0.91491 0.56583,1.12293 0.14809,0.22487 0.25786,0.36219 0.47966,0.60046 0.24965,0.26817 0.27515,0.33832 0.14622,0.4023 -0.19856,0.0986 -1.18,0.043 -2.14125,-0.12138 -1.17741,-0.20122 -2.02269,-0.52066 -2.1309,-0.80526 -0.0469,-0.12324 0.0293,-0.77843 0.14304,-1.23027 0.26676,-1.05995 0.84766,-2.09014 1.57236,-2.78841 0.17403,-0.16768 0.4492,-0.40252 0.46862,-0.39994 0.004,4.9e-4 0.0254,0.009 0.0469,0.019 z"
       id="path2509"
       inkscape:connector-curvature="0" />
    <path
       style="opacity:1;vector-effect:none;fill:#ffff00;fill-opacity:1;stroke:#fdff00;stroke-width:0.18304038;stroke-linecap:butt;stroke-linejoin:round;stroke-miterlimit:9.5;stroke-dasharray:none;stroke-dashoffset:0;stroke-opacity:1"
       d="m 127.92371,148.0108 0.22018,0.10252 -0.0364,0.11466 c -0.0542,0.17067 -0.0684,0.28554 -0.0685,0.5564 -2.5e-4,0.49549 0.11707,1.09776 0.35021,1.79862 0.13968,0.41996 0.22238,0.62377 0.405,0.99875 0.26815,0.55064 0.41218,0.78038 0.68716,1.0962 0.0773,0.0887 0.1843,0.21158 0.23767,0.27294 0.14117,0.1619 0.15686,0.21493 0.0792,0.26585 -0.14117,0.0925 -0.971,0.0645 -1.83727,-0.0621 -1.26757,-0.18525 -2.28442,-0.53065 -2.42319,-0.82306 -0.0451,-0.0951 -0.0239,-0.44732 0.0534,-0.88323 0.1973,-1.11437 0.79794,-2.28995 1.56532,-3.06367 0.16059,-0.1619 0.51581,-0.47683 0.53758,-0.47655 0.005,7e-5 0.10868,0.0463 0.22976,0.10274 z"
       id="path2511"
       inkscape:connector-curvature="0" />
    <path
       style="opacity:1;vector-effect:none;fill:#0000fe;fill-opacity:1;stroke:#000000;stroke-width:0.18304038;stroke-linecap:butt;stroke-linejoin:round;stroke-miterlimit:9.5;stroke-dasharray:none;stroke-dashoffset:0;stroke-opacity:1"
       d="m 124.70184,146.08439 c 0.98925,0.0568 2.00026,0.36703 2.71641,0.83343 0.13444,0.0876 0.16581,0.11483 0.16077,0.14005 -0.004,0.0168 -0.0149,0.12604 -0.0236,0.24185 -0.009,0.11577 -0.0201,0.22459 -0.0236,0.24174 -0.005,0.029 -0.0192,0.0312 -0.1902,0.0323 -0.24591,0.001 -0.44035,0.0523 -0.78437,0.20517 -0.89931,0.39943 -1.97998,1.22009 -2.63241,1.99902 -0.14958,0.17852 -0.33056,0.45673 -0.43082,0.66215 -0.10512,0.21557 -0.19462,0.32196 -0.27055,0.32196 -0.0892,0 -0.18721,-0.15871 -0.284,-0.46009 -0.17011,-0.52921 -0.34688,-1.43831 -0.43229,-2.22244 -0.0402,-0.36808 -0.0404,-1.13464 -2.6e-4,-1.3311 0.0614,-0.30226 0.13314,-0.41066 0.30501,-0.46173 0.36609,-0.10868 0.76201,-0.17646 1.18754,-0.2029 0.2826,-0.0168 0.38739,-0.0168 0.70237,4.8e-4 z"
       id="path2513"
       inkscape:connector-curvature="0" />
    <path
       style="opacity:1;vector-effect:none;fill:#ffffff;fill-opacity:1;stroke:#ffffff;stroke-width:0.18304038;stroke-linecap:butt;stroke-linejoin:round;stroke-miterlimit:9.5;stroke-dasharray:none;stroke-dashoffset:0;stroke-opacity:1"
       d="m 127.42895,141.77182 c 0.0907,0.0299 0.10942,0.0491 0.23446,0.24133 0.45749,0.70346 0.75185,1.55329 0.87029,2.51273 0.0387,0.31381 0.0388,1.04476 2.8e-4,1.33132 -0.0325,0.24163 -0.0878,0.50776 -0.14229,0.68661 l -0.0402,0.13184 -0.074,0.0149 c -0.21715,0.0463 -0.42897,0.0822 -0.4461,0.0757 -0.0112,-0.004 -0.0282,-0.045 -0.0387,-0.0909 -0.0937,-0.40664 -0.63868,-1.01795 -1.46071,-1.63848 -0.84861,-0.64061 -1.83278,-1.12201 -2.433,-1.19007 -0.22451,-0.0254 -0.39502,-0.0848 -0.4297,-0.14957 -0.0558,-0.10439 0.11596,-0.28062 0.55446,-0.56843 0.88649,-0.58188 2.05919,-1.13593 2.79172,-1.31902 0.22709,-0.0568 0.50476,-0.0741 0.61342,-0.0385 z"
       id="path2515"
       inkscape:connector-curvature="0" />
    <path
       style="opacity:1;vector-effect:none;fill:#ff0000;fill-opacity:1;stroke:#fa0000;stroke-width:0.18304038;stroke-linecap:butt;stroke-linejoin:round;stroke-miterlimit:9.5;stroke-dasharray:none;stroke-dashoffset:0;stroke-opacity:1"
       d="m 124.80459,146.10092 c 0.78004,0.0657 1.54002,0.26875 2.16449,0.57838 0.2066,0.10253 0.47599,0.26052 0.55174,0.32376 l 0.0499,0.0416 -0.0245,0.24955 c -0.0131,0.13724 -0.0276,0.25285 -0.0313,0.25692 -0.004,0.004 -0.0995,0.0131 -0.21263,0.0187 -0.29869,0.0149 -0.473,0.0682 -0.89263,0.26946 -0.76509,0.36706 -1.66911,1.04027 -2.28476,1.70141 -0.27924,0.29987 -0.43279,0.51222 -0.61466,0.85004 -0.19235,0.35723 -0.26662,0.4197 -0.36886,0.31025 -0.15368,-0.1645 -0.3442,-0.8427 -0.50566,-1.79974 -0.12064,-0.71546 -0.138,-0.90602 -0.13875,-1.52842 -4.8e-4,-0.51209 10e-4,-0.55429 0.0338,-0.68222 0.0414,-0.16452 0.0949,-0.27449 0.15966,-0.32902 0.0829,-0.0698 0.49398,-0.17198 0.92188,-0.2291 0.27213,-0.0364 0.92641,-0.0534 1.1925,-0.031 z"
       id="path2517"
       inkscape:connector-curvature="0" />
    <path
       style="opacity:1;vector-effect:none;fill:none;fill-opacity:1;stroke:#000000;stroke-width:0.18304038;stroke-linecap:butt;stroke-linejoin:round;stroke-miterlimit:9.5;stroke-dasharray:none;stroke-dashoffset:0;stroke-opacity:1"
       d="m 130.43385,141.73248 c 0.11354,0.0414 0.22512,0.11148 0.43641,0.27449 0.60289,0.46505 1.38891,1.24083 1.87191,1.84751 0.37252,0.46787 0.56917,0.83408 0.56917,1.05987 0,0.0881 -0.004,0.099 -0.0806,0.19934 -0.48007,0.63203 -1.196,1.19953 -2.03262,1.61123 -0.72834,0.35843 -1.45272,0.55902 -2.09339,0.57973 l -0.15947,0.005 -0.14117,-0.24007 c -0.0777,-0.13203 -0.13912,-0.24109 -0.13688,-0.24231 0.0583,-0.0306 0.20801,-0.13967 0.26621,-0.19407 0.47432,-0.44367 1.04959,-1.81359 1.26485,-3.01204 0.0921,-0.51263 0.11503,-1.03674 0.0601,-1.37046 -0.0149,-0.0911 -0.0273,-0.23699 -0.0273,-0.32402 0,-0.1337 0.004,-0.1634 0.0297,-0.19105 0.036,-0.0397 0.071,-0.0404 0.1731,-0.004 z"
       id="path2519"
       inkscape:connector-curvature="0" />
    <path
       style="opacity:1;vector-effect:none;fill:#0000ff;fill-opacity:1;stroke:#0000fd;stroke-width:0.18304038;stroke-linecap:butt;stroke-linejoin:round;stroke-miterlimit:9.5;stroke-dasharray:none;stroke-dashoffset:0;stroke-opacity:1"
       d="m 130.44644,141.7507 c 0.27158,0.11017 0.88864,0.62637 1.5397,1.28791 0.8554,0.86917 1.3096,1.52296 1.3096,1.88507 0,0.0785 -0.005,0.0899 -0.107,0.22061 -0.51089,0.65834 -1.32363,1.27224 -2.20494,1.66548 -0.64887,0.28953 -1.20308,0.43657 -1.79625,0.47654 -0.12791,0.009 -0.23401,0.0131 -0.23567,0.0112 -0.0224,-0.029 -0.2568,-0.44683 -0.2565,-0.45734 2.1e-4,-0.007 0.0366,-0.039 0.0808,-0.0691 0.19676,-0.13334 0.3518,-0.31607 0.5442,-0.64121 0.40456,-0.68368 0.78938,-1.81061 0.91805,-2.68859 0.0732,-0.49963 0.0766,-0.79702 0.0149,-1.35686 -0.0187,-0.16974 -0.0112,-0.30902 0.0168,-0.34419 0.025,-0.0301 0.0853,-0.0267 0.17553,0.009 z"
       id="path2521"
       inkscape:connector-curvature="0" />
    <path
       style="opacity:1;vector-effect:none;fill:#00ff00;fill-opacity:1;stroke:#00ff00;stroke-width:0.18304038;stroke-linecap:butt;stroke-linejoin:round;stroke-miterlimit:9.5;stroke-dasharray:none;stroke-dashoffset:0;stroke-opacity:1"
       d="m 134.25557,147.6205 c 0.0864,0.13203 -0.0583,0.60821 -0.43679,1.43607 -0.60542,1.32434 -1.3077,2.32172 -1.70833,2.42617 -0.0661,0.0168 -0.0805,0.0149 -0.24955,-0.0474 -1.12023,-0.41053 -2.24418,-1.35941 -2.90555,-2.45297 -0.16844,-0.2786 -0.35111,-0.67143 -0.42237,-0.90862 -0.007,-0.0248 0.0295,-0.0726 0.17478,-0.22555 l 0.18412,-0.19407 0.0926,0.0719 c 0.28535,0.22176 0.80302,0.36291 1.59759,0.43562 0.27091,0.0248 1.09809,0.0247 1.38026,-2.1e-4 0.82402,-0.0726 1.34016,-0.19851 1.84534,-0.4501 0.19629,-0.0978 0.25518,-0.12025 0.32991,-0.12566 0.0846,-0.005 0.0928,-0.004 0.11801,0.0348 z"
       id="path2523"
       inkscape:connector-curvature="0" />
    <path
       style="opacity:1;vector-effect:none;fill:#fffff7;fill-opacity:1;stroke:#ffffff;stroke-width:0.18304038;stroke-linecap:butt;stroke-linejoin:round;stroke-miterlimit:9.5;stroke-dasharray:none;stroke-dashoffset:0;stroke-opacity:1"
       d="m 128.02538,147.81167 -0.2522,-0.11438 -0.0242,-0.0447 -0.0242,-0.0447 0.0231,-0.24606 c 0.0305,-0.3246 0.0278,-0.3096 0.0623,-0.3492 l 0.0294,-0.0338 0.27507,-0.0539 0.27508,-0.0539 0.0349,0.0169 c 0.0192,0.009 0.0401,0.0195 0.0464,0.0227 0.006,0.003 0.0769,0.11697 0.15689,0.25282 l 0.14537,0.247 -0.005,0.0444 c -0.005,0.0439 -0.007,0.0466 -0.19794,0.2482 -0.16903,0.17874 -0.19674,0.20453 -0.22535,0.20972 -0.0179,0.003 -0.0404,0.008 -0.0499,0.01 -0.0101,0.002 -0.12326,-0.0443 -0.26954,-0.11067 z"
       id="path823"
       inkscape:connector-curvature="0" />
  </g>
</svg>
